<svg width="300" height="83" viewBox="0 0 300 83" fill="none" xmlns="http://www.w3.org/2000/svg">
<path d="M143.843 43.349C143.843 56.5788 133.551 67.3375 120.896 67.3375C108.242 67.3375 97.9503 56.5788 97.9503 43.349C97.9503 30.1193 108.246 19.3606 120.896 19.3606C121.258 19.3804 121.598 19.5378 121.847 19.8003C122.095 20.0629 122.234 20.4107 122.234 20.7723C122.234 21.1339 122.095 21.4817 121.847 21.7443C121.598 22.0068 121.258 22.1642 120.896 22.184C109.729 22.184 100.644 31.6775 100.644 43.349C100.644 55.0206 109.729 64.5353 120.896 64.5353C132.064 64.5353 141.144 55.0418 141.144 43.3703C141.134 43.1869 141.161 43.0033 141.224 42.8308C141.288 42.6583 141.385 42.5005 141.512 42.367C141.638 42.2336 141.79 42.1272 141.959 42.0546C142.128 41.9819 142.31 41.9444 142.494 41.9444C142.677 41.9444 142.859 41.9819 143.028 42.0546C143.197 42.1272 143.349 42.2336 143.475 42.367C143.602 42.5005 143.699 42.6583 143.763 42.8308C143.826 43.0033 143.853 43.1869 143.843 43.3703V43.349Z" fill="url(#paint0_angular_29_45)"/>
<path d="M199.891 43.349C199.891 56.5788 189.595 67.3375 176.945 67.3375C164.295 67.3375 153.998 56.5788 153.998 43.349C153.998 30.1193 164.295 19.3606 176.945 19.3606C189.595 19.3606 199.891 30.1448 199.891 43.349ZM197.188 43.349C197.188 31.6775 188.108 22.184 176.94 22.184C165.773 22.184 156.693 31.6775 156.693 43.349C156.693 55.0206 165.773 64.5353 176.94 64.5353C188.108 64.5353 197.188 55.0206 197.188 43.349Z" fill="url(#paint1_angular_29_45)"/>
<path d="M37.5779 66.9768H29.6658C28.6544 66.9768 28.2975 66.323 28.2975 65.7625C28.2975 65.2021 28.6544 64.5483 29.6658 64.5483H37.5779C48.4306 64.5483 56.466 62.4594 61.4632 58.3367C65.7677 54.8255 67.9476 49.7009 67.9476 43.0988C67.9476 36.4967 65.7677 31.3763 61.4674 27.8651C56.466 23.7424 48.4434 21.6535 37.5779 21.6535H29.6658C28.6544 21.6535 28.2975 20.9997 28.2975 20.4393C28.2975 19.8788 28.6544 19.225 29.6658 19.225H37.5779C49.0765 19.225 57.7281 21.5007 63.2946 25.9884C68.1941 29.9879 70.6799 35.7536 70.6799 43.0988C70.6799 50.4439 68.1941 56.2139 63.2946 60.2091C57.7323 64.7011 49.0765 66.9768 37.5779 66.9768Z" fill="url(#paint2_angular_29_45)"/>
<path d="M84.1359 66.9766C83.9652 66.9905 83.7935 66.9681 83.6321 66.9109C83.4707 66.8536 83.3233 66.7628 83.1996 66.6444C83.0759 66.5261 82.9788 66.3828 82.9145 66.2242C82.8503 66.0655 82.8205 65.8951 82.8271 65.7241V20.473C82.8239 20.2993 82.8575 20.127 82.9257 19.9673C82.9938 19.8075 83.095 19.664 83.2227 19.5461C83.3503 19.4282 83.5014 19.3387 83.6661 19.2833C83.8308 19.2279 84.0054 19.2079 84.1784 19.2247C84.3468 19.2124 84.5158 19.2361 84.6744 19.2941C84.8329 19.3522 84.9772 19.4432 85.0978 19.5613C85.2184 19.6794 85.3124 19.8217 85.3737 19.9789C85.435 20.1361 85.4621 20.3045 85.4532 20.473V65.7241C85.4599 65.8959 85.4299 66.0671 85.3652 66.2264C85.3005 66.3857 85.2025 66.5293 85.0779 66.6479C84.9533 66.7664 84.8048 66.857 84.6424 66.9137C84.4799 66.9703 84.3073 66.9918 84.1359 66.9766Z" fill="#0A81B4"/>
<path d="M29.6132 38.4791C29.4406 38.463 29.2665 38.4834 29.1023 38.5391C28.9381 38.5948 28.7875 38.6844 28.6603 38.8023C28.5332 38.9201 28.4324 39.0634 28.3645 39.2228C28.2966 39.3822 28.2631 39.5541 28.2662 39.7274V65.6816C28.2535 65.8521 28.2778 66.0234 28.3374 66.1836C28.3969 66.3439 28.4904 66.4895 28.6114 66.6104C28.7324 66.7313 28.8781 66.8247 29.0385 66.8842C29.199 66.9438 29.3703 66.968 29.541 66.9553C29.7162 66.9724 29.893 66.9519 30.0596 66.895C30.2261 66.8381 30.3785 66.7462 30.5066 66.6255C30.6346 66.5048 30.7353 66.3581 30.8018 66.1953C30.8683 66.0325 30.8992 65.8573 30.8923 65.6816V39.7274C30.9012 39.5585 30.874 39.3897 30.8125 39.2322C30.751 39.0747 30.6566 38.9321 30.5355 38.814C30.4145 38.6959 30.2696 38.6049 30.1105 38.5471C29.9515 38.4894 29.782 38.4662 29.6132 38.4791Z" fill="#2BBAE5"/>
<path d="M271.989 66.9766C271.758 66.978 271.531 66.911 271.339 66.784C271.146 66.6571 270.995 66.4759 270.905 66.2633V66.2208L253.683 23.7507L243.527 48.6392L250.232 65.1976C250.334 65.3511 250.389 65.5312 250.389 65.7156C250.399 65.995 250.311 66.2692 250.141 66.4911C249.971 66.713 249.729 66.8689 249.456 66.9321C249.184 66.9953 248.897 66.9619 248.647 66.8375C248.396 66.7132 248.197 66.5057 248.082 66.2505V66.2081L242.265 51.8405L236.426 66.2505C236.312 66.5057 236.112 66.7132 235.862 66.8375C235.611 66.9619 235.325 66.9953 235.052 66.9321C234.78 66.8689 234.537 66.713 234.367 66.4911C234.197 66.2692 234.109 65.995 234.119 65.7156C234.118 65.5305 234.175 65.3497 234.28 65.1976L240.982 48.6392L230.804 23.7507L213.586 66.2675C213.47 66.5204 213.27 66.7254 213.02 66.8477C212.77 66.97 212.485 67.0022 212.214 66.9387C211.943 66.8752 211.702 66.7201 211.533 66.4995C211.363 66.2789 211.275 66.0064 211.283 65.7283C211.283 65.5432 211.339 65.3624 211.445 65.2103L229.717 20.0102C229.806 19.7976 229.957 19.6164 230.15 19.4894C230.343 19.3625 230.569 19.2955 230.8 19.2969C231.04 19.2897 231.277 19.3531 231.48 19.4792C231.684 19.6052 231.847 19.7884 231.948 20.0059V20.0526L242.248 45.4294L252.574 20.0866C252.634 19.856 252.771 19.6525 252.961 19.5085C253.151 19.3646 253.385 19.2886 253.623 19.2926H253.683C253.913 19.2923 254.139 19.3598 254.332 19.4866C254.524 19.6134 254.675 19.794 254.766 20.0059V20.0441L273.229 65.4396V65.7283C273.241 65.8946 273.217 66.0614 273.159 66.2177C273.101 66.3739 273.01 66.5159 272.893 66.6342C272.775 66.7524 272.634 66.8442 272.478 66.9032C272.322 66.9623 272.155 66.9873 271.989 66.9766Z" fill="url(#paint3_angular_29_45)"/>
<defs>
<radialGradient id="paint0_angular_29_45" cx="0" cy="0" r="1" gradientUnits="userSpaceOnUse" gradientTransform="translate(120.898 43.349) rotate(90) scale(23.9884 22.9472)">
<stop stop-color="#2DBDE8"/>
<stop offset="1" stop-color="#0070A5"/>
</radialGradient>
<radialGradient id="paint1_angular_29_45" cx="0" cy="0" r="1" gradientUnits="userSpaceOnUse" gradientTransform="translate(176.945 43.349) rotate(90) scale(23.9884 22.9462)">
<stop stop-color="#2DBDE8"/>
<stop offset="1" stop-color="#0070A5"/>
</radialGradient>
<radialGradient id="paint2_angular_29_45" cx="0" cy="0" r="1" gradientUnits="userSpaceOnUse" gradientTransform="translate(49.4887 43.1009) rotate(90) scale(23.8759 21.1912)">
<stop stop-color="#2DBDE8"/>
<stop offset="1" stop-color="#0070A5"/>
</radialGradient>
<radialGradient id="paint3_angular_29_45" cx="0" cy="0" r="1" gradientUnits="userSpaceOnUse" gradientTransform="translate(242.257 43.1357) rotate(90) scale(23.8433 30.9748)">
<stop stop-color="#2DBDE8"/>
<stop offset="1" stop-color="#0070A5"/>
</radialGradient>
</defs>
</svg>
